<svg width="26" height="80" viewBox="0 0 26 80" fill="none" xmlns="http://www.w3.org/2000/svg">
<path d="M2.37951 37.6147C3.21338 37.6147 4.02253 38.0532 4.45823 38.8331L25.5127 76.4578C26.1544 77.6047 25.7452 79.0546 24.5983 79.6972C23.4505 80.3379 22.0006 79.9288 21.3589 78.7819L0.304449 41.1571C-0.3372 40.0102 0.0719533 38.5603 1.21887 37.9177C1.58683 37.7127 1.98592 37.6147 2.37951 37.6147Z" fill="black"/>
<path d="M23.4376 0.000836965C23.8312 0.000836965 24.2294 0.0987783 24.5973 0.304728C25.7442 0.946377 26.1534 2.39718 25.5118 3.54409L4.45726 41.1689C3.81561 42.3158 2.36572 42.7249 1.21789 42.0833C0.0709795 41.4416 -0.338176 39.9917 0.303472 38.8439L21.3589 1.21915C21.7946 0.440197 22.6037 0.000836965 23.4376 0.000836965Z" fill="black"/>
</svg>
