<svg width="26" height="80" viewBox="0 0 26 80" fill="none" xmlns="http://www.w3.org/2000/svg">
<path d="M23.4367 42.3853C22.6028 42.3853 21.7936 41.9468 21.3579 41.1669L0.303435 3.54217C-0.338214 2.39526 0.0709405 0.945371 1.21785 0.302807C2.36568 -0.337926 3.81557 0.0712276 4.45722 1.21814L25.5117 38.8429C26.1534 39.9898 25.7442 41.4397 24.5973 42.0823C24.2293 42.2873 23.8302 42.3853 23.4367 42.3853Z" fill="black"/>
<path d="M2.37856 79.9992C1.98496 79.9992 1.58679 79.9012 1.21883 79.6953C0.0719169 79.0536 -0.337237 77.6028 0.304412 76.4559L21.3589 38.8311C22.0006 37.6842 23.4504 37.2751 24.5983 37.9167C25.7452 38.5584 26.1543 40.0083 25.5127 41.1561L4.45728 78.7809C4.02158 79.5598 3.21243 79.9992 2.37856 79.9992Z" fill="black"/>
</svg>
